<svg width="64" height="64" viewBox="0 0 64 64" fill="none" xmlns="http://www.w3.org/2000/svg">
<rect width="64" height="64" rx="5" fill="#FFFF"/>
<path d="M34.3253 56.5945C33.6441 57.6354 33.0256 58.6855 32.3204 59.6819C32.0244 60.1002 31.8974 60.1116 31.6119 59.6828C30.5955 58.1558 29.5975 56.6171 28.5773 55.0926C27.2406 53.0953 25.8855 51.1098 24.5468 49.1138C24.1522 48.5254 23.7707 47.9264 23.3187 47.3801C22.9307 46.9111 22.7942 46.3785 22.7933 45.8049C22.7855 40.8668 22.7862 35.9288 22.7816 30.9907C22.7814 30.7193 22.8868 30.5065 23.0713 30.3092C24.0665 29.2447 25.148 28.2632 26.1705 27.226C28.0201 25.3498 29.9435 23.5451 31.7871 21.6645C32.8404 20.5901 33.9333 19.5569 35.0062 18.503C36.4037 17.1303 37.7442 15.7011 39.1655 14.353C41.0029 12.6103 42.7332 10.765 44.5747 9.02719C44.7623 8.85022 44.9922 8.68603 45.0251 8.39898C44.8736 8.26458 44.7008 8.3037 44.5409 8.30369C35.9875 8.30301 27.4341 8.31552 18.8807 8.29639C17.166 8.29255 15.5919 8.66319 14.1736 9.60894C12.2108 10.9177 10.9921 12.7044 10.536 14.9966C10.4513 15.4222 10.4281 15.8387 10.428 16.263C10.4255 23.2893 10.4333 30.3157 10.4185 37.342C10.4145 39.2412 11.0088 40.9088 12.2168 42.3889C13.4004 43.8392 14.9271 44.7489 16.7346 45.256C17.5453 45.4835 18.4007 45.5752 19.1423 46.0219C20.0127 46.5462 20.3613 47.6474 19.8892 48.4922C19.4817 49.2213 18.8249 49.5892 17.9906 49.6307C17.158 49.6722 16.3498 49.4937 15.554 49.2768C13.2847 48.6583 11.2714 47.6017 9.63208 45.9198C7.96009 44.2044 6.80574 42.2059 6.29274 39.8841C6.11447 39.0772 6.0099 38.248 6.00954 37.4164C6.00661 30.4824 5.98466 23.5482 6.01934 16.6143C6.03482 13.5182 6.98146 10.7065 9.10827 8.35449C10.7543 6.53415 12.7743 5.27275 15.1747 4.58604C16.4086 4.23303 17.6623 4.11755 18.9342 4.06247C22.3185 3.91595 25.7026 4.07603 29.0869 4.05445C34.2895 4.02127 39.4925 4.05151 44.6953 4.04233C47.2683 4.03779 49.6982 4.54666 51.9233 5.85795C53.3456 6.69609 54.5394 7.77962 55.5258 9.07786C56.7182 10.6471 57.5431 12.3797 57.8198 14.3312C58.0113 15.6818 58.0395 17.0409 57.9544 18.402C57.9451 18.5515 57.9348 18.7013 57.9348 18.8509C57.9334 22.2314 57.9253 25.6119 57.9355 28.9923C57.9444 31.9674 58.0082 34.9426 57.9828 37.9173C57.9641 40.0965 57.2849 42.1083 56.0984 43.9537C55.556 44.7972 54.9296 45.5807 54.1786 46.2509C52.5339 47.7187 50.6614 48.7898 48.473 49.2995C47.657 49.4895 46.8457 49.6813 46.0001 49.6356C45.2079 49.5927 44.5724 49.2376 44.2376 48.543C43.7468 47.525 44.0786 46.3944 45.2333 45.8853C45.9462 45.571 46.723 45.4572 47.4666 45.2382C49.7613 44.5623 51.5436 43.2537 52.6885 41.1732C53.2834 40.0921 53.5945 38.9427 53.5909 37.6967C53.5728 31.3858 53.5768 25.0748 53.5806 18.7638C53.5813 17.6686 53.6202 16.5736 53.6367 15.4784C53.64 15.2621 53.6446 15.0413 53.5247 14.8424C53.3335 14.7991 53.2389 14.9333 53.1326 15.033C51.7618 16.3179 50.4669 17.6768 49.126 18.991C47.7207 20.3682 46.3472 21.7789 44.9544 23.1699C43.7586 24.3642 42.5834 25.578 41.3909 26.7754C41.2003 26.9668 41.1507 27.1747 41.1441 27.4293C41.0536 30.9471 41.163 34.4651 41.1288 37.9829C41.1068 40.2435 41.0957 42.5042 41.082 44.7649C41.0796 45.1562 41.0746 45.5458 41.1331 45.9378C41.1967 46.3643 41.063 46.7632 40.7975 47.108C39.4838 48.8138 38.3487 50.6379 37.1278 52.405C36.1773 53.7807 35.2671 55.183 34.3253 56.5945ZM33.3257 35.2126C34.3363 34.9004 35.3747 34.9544 36.4095 35.0045C36.8657 35.0266 36.8656 35.0509 36.8653 34.5908C36.8643 32.7565 36.8766 30.9219 36.8573 29.0877C36.8357 27.0382 37.1357 27.7086 35.6458 26.2211C35.3409 25.9166 35.0587 25.5899 34.7493 25.2901C34.5769 25.1231 34.3995 25.0034 34.1563 25.2591C33.1285 26.3394 32.0236 27.3459 30.9883 28.4211C30.043 29.4027 29.0334 30.3262 28.0339 31.2565C27.3113 31.9291 26.9345 32.6591 26.9548 33.7066C27.027 37.4318 26.9865 41.1591 26.9795 44.8855C26.979 45.1684 27.0564 45.4016 27.227 45.6206C28.0996 46.7401 28.8631 47.9328 29.6617 49.102C29.7615 49.2482 29.838 49.4203 30.031 49.5069C30.1103 49.3733 30.1209 49.2505 30.1227 49.1228C30.1279 48.7652 30.1309 48.4074 30.1478 48.0503C30.1949 47.0544 30.8735 46.3924 31.8814 46.3571C32.7722 46.326 33.7134 47.0442 33.672 47.8612C33.6529 48.2363 33.6918 48.6189 33.6744 48.9995C33.6636 49.2344 33.6615 49.4754 33.759 49.6944C33.9 49.6974 33.9429 49.6054 33.991 49.5311C34.8623 48.1864 35.7928 46.8813 36.7376 45.5857C36.8463 45.4366 36.8672 45.2719 36.8665 45.0939C36.8608 43.5596 36.8616 42.0252 36.8564 40.4908C36.8537 39.7036 36.7238 39.5417 35.949 39.3299C35.8697 39.3082 35.7873 39.2975 35.7065 39.2808C34.9486 39.1239 34.9205 39.1336 34.8468 39.9015C34.6655 41.7905 32.4003 42.294 31.1749 41.4396C30.0589 40.6614 29.8438 39.3253 30.2379 38.1068C30.7132 36.6372 31.8183 35.744 33.3257 35.2126Z" fill="black"/>
<path d="M35.1924 59.5395C35.8459 59.7044 36.5081 59.6641 37.1148 59.9074C37.2616 59.9662 37.4124 60.0225 37.5459 60.105C37.9008 60.3244 37.8874 60.5652 37.5192 60.7527C37.2229 60.9035 36.8966 60.9601 36.5779 61.0293C36.0255 61.1492 35.4544 61.1998 34.8977 61.2295C32.7958 61.3416 30.6937 61.5063 28.5837 61.2861C27.8105 61.2054 27.0234 61.2345 26.248 61.1271C25.7321 61.0556 25.2105 60.9972 24.7431 60.7447C24.3818 60.5495 24.3584 60.3017 24.7029 60.0762C25.1064 59.8121 25.5885 59.7522 26.0534 59.6656C27.303 59.4329 28.5757 59.4603 29.8364 59.3518C30.8737 59.2625 31.9179 59.2847 32.9596 59.4014C33.6896 59.4831 34.4274 59.4944 35.1924 59.5395Z" fill="black"/>
</svg>
